<svg width="32" height="33" viewBox="0 0 32 33" fill="none" xmlns="http://www.w3.org/2000/svg">
<path d="M29.0521 2.47333L29.8387 3.25999C30.9227 4.34533 30.7587 6.26933 29.4694 7.55733L13.2467 23.78L7.99074 25.7027C7.33074 25.9453 6.68807 25.6307 6.5574 25.0027C6.51339 24.7748 6.53418 24.5392 6.6174 24.3227L8.5774 19.0213L24.7547 2.84266C26.0441 1.55466 27.9681 1.38799 29.0521 2.47333ZM12.5387 4.08666C12.7138 4.08666 12.8872 4.12115 13.049 4.18815C13.2107 4.25516 13.3577 4.35337 13.4815 4.47718C13.6054 4.601 13.7036 4.74798 13.7706 4.90975C13.8376 5.07152 13.8721 5.2449 13.8721 5.41999C13.8721 5.59509 13.8376 5.76847 13.7706 5.93024C13.7036 6.09201 13.6054 6.23899 13.4815 6.3628C13.3577 6.48661 13.2107 6.58483 13.049 6.65183C12.8872 6.71884 12.7138 6.75333 12.5387 6.75333H7.2054C6.49816 6.75333 5.81988 7.03428 5.31979 7.53438C4.81969 8.03447 4.53874 8.71275 4.53874 9.41999V25.42C4.53874 26.1272 4.81969 26.8055 5.31979 27.3056C5.81988 27.8057 6.49816 28.0867 7.2054 28.0867H23.2054C23.9126 28.0867 24.5909 27.8057 25.091 27.3056C25.5911 26.8055 25.8721 26.1272 25.8721 25.42V20.0867C25.8721 19.733 26.0125 19.3939 26.2626 19.1439C26.5126 18.8938 26.8518 18.7533 27.2054 18.7533C27.559 18.7533 27.8982 18.8938 28.1482 19.1439C28.3983 19.3939 28.5387 19.733 28.5387 20.0867V25.42C28.5387 26.8345 27.9768 28.191 26.9766 29.1912C25.9764 30.1914 24.6199 30.7533 23.2054 30.7533H7.2054C5.79092 30.7533 4.43436 30.1914 3.43417 29.1912C2.43397 28.191 1.87207 26.8345 1.87207 25.42V9.41999C1.87207 8.00551 2.43397 6.64895 3.43417 5.64876C4.43436 4.64856 5.79092 4.08666 7.2054 4.08666H12.5387Z" fill="white"/>
</svg>
