<svg width="20" height="20" viewBox="0 0 20 20" fill="none" xmlns="http://www.w3.org/2000/svg">
<path d="M8.56459 10.0035L12.7847 13.8794C12.9282 14.0113 12.9977 14.1651 12.9931 14.3408C12.9885 14.5166 12.9143 14.6704 12.7703 14.8023C12.6264 14.9341 12.4589 15 12.2679 15C12.0769 15 11.9095 14.9341 11.7655 14.8023L7.3445 10.755C7.22967 10.6495 7.14354 10.5309 7.08612 10.399C7.02871 10.2672 7 10.1354 7 10.0035C7 9.87169 7.02871 9.73986 7.08612 9.60803C7.14354 9.47619 7.22967 9.35754 7.3445 9.25208L11.7655 5.19162C11.9091 5.05978 12.079 4.99598 12.2754 5.0002C12.4718 5.00441 12.6415 5.07262 12.7847 5.2048C12.9278 5.33699 12.9996 5.49079 13 5.66622C13.0004 5.84164 12.9286 5.99545 12.7847 6.12763L8.56459 10.0035Z" fill="#6A3EA1"/>
</svg>
