<svg width="80" height="26" viewBox="0 0 80 26" fill="none" xmlns="http://www.w3.org/2000/svg">
<path d="M17.6951 1.6H20.4151V25.12L3.45508 7.328V24H0.73508V0.48L17.6951 18.272V1.6ZM24.1076 16.64C24.1076 15.1467 24.4382 13.824 25.0996 12.672C25.7822 11.52 26.6996 10.6133 27.8516 9.952C29.0036 9.29067 30.2942 8.96 31.7236 8.96C33.1742 8.96 34.4649 9.29067 35.5956 9.952C36.7476 10.6133 37.6542 11.52 38.3156 12.672C38.9982 13.824 39.3396 15.1467 39.3396 16.64C39.3396 18.112 38.9982 19.4347 38.3156 20.608C37.6542 21.76 36.7476 22.6667 35.5956 23.328C34.4649 23.9893 33.1742 24.32 31.7236 24.32C30.2942 24.32 29.0036 23.9893 27.8516 23.328C26.6996 22.6667 25.7822 21.76 25.0996 20.608C24.4382 19.4347 24.1076 18.112 24.1076 16.64ZM26.6996 16.64C26.6996 17.664 26.9129 18.5707 27.3396 19.36C27.7876 20.1493 28.3849 20.7787 29.1316 21.248C29.8996 21.696 30.7636 21.92 31.7236 21.92C32.6836 21.92 33.5369 21.696 34.2836 21.248C35.0516 20.7787 35.6489 20.1493 36.0756 19.36C36.5236 18.5707 36.7476 17.664 36.7476 16.64C36.7476 15.616 36.5236 14.7093 36.0756 13.92C35.6489 13.1093 35.0516 12.48 34.2836 12.032C33.5369 11.584 32.6836 11.36 31.7236 11.36C30.7636 11.36 29.8996 11.584 29.1316 12.032C28.3849 12.48 27.7876 13.1093 27.3396 13.92C26.9129 14.7093 26.6996 15.616 26.6996 16.64ZM40.6163 9.28H47.9763V11.68H40.6163V9.28ZM43.0163 4.16H45.5763V24H43.0163V4.16ZM56.2398 24.32C54.8745 24.32 53.6585 24 52.5918 23.36C51.5465 22.6987 50.7252 21.792 50.1278 20.64C49.5518 19.488 49.2638 18.1547 49.2638 16.64C49.2638 15.104 49.5625 13.76 50.1598 12.608C50.7785 11.456 51.6318 10.56 52.7198 9.92C53.8292 9.28 55.1092 8.96 56.5598 8.96C58.0105 8.96 59.2478 9.26933 60.2718 9.888C61.3172 10.4853 62.1172 11.3493 62.6718 12.48C63.2265 13.6107 63.5038 14.9547 63.5038 16.512C63.5038 16.6613 63.4932 16.8213 63.4718 16.992C63.4718 17.1413 63.4718 17.2373 63.4718 17.28H50.8958V15.104H61.4558L60.4318 16.576C60.4958 16.4693 60.5598 16.3093 60.6238 16.096C60.6878 15.8613 60.7198 15.6693 60.7198 15.52C60.7198 14.6453 60.5385 13.888 60.1758 13.248C59.8345 12.608 59.3545 12.1067 58.7358 11.744C58.1172 11.3813 57.3918 11.2 56.5598 11.2C55.5785 11.2 54.7358 11.4133 54.0318 11.84C53.3492 12.2453 52.8158 12.8427 52.4318 13.632C52.0692 14.4 51.8772 15.3493 51.8558 16.48C51.8558 17.632 52.0372 18.6133 52.3998 19.424C52.7625 20.2347 53.2958 20.8533 53.9998 21.28C54.7038 21.7067 55.5572 21.92 56.5598 21.92C57.5625 21.92 58.4478 21.7067 59.2158 21.28C59.9838 20.832 60.6345 20.16 61.1678 19.264L63.2478 20.576C62.4798 21.8133 61.5092 22.752 60.3358 23.392C59.1838 24.0107 57.8185 24.32 56.2398 24.32ZM72.7086 24.32C71.3432 24.32 70.1272 24 69.0606 23.36C68.0152 22.6987 67.1939 21.792 66.5966 20.64C66.0206 19.488 65.7326 18.1547 65.7326 16.64C65.7326 15.104 66.0312 13.76 66.6286 12.608C67.2472 11.456 68.1006 10.56 69.1886 9.92C70.2979 9.28 71.5779 8.96 73.0286 8.96C74.4792 8.96 75.7166 9.26933 76.7406 9.888C77.7859 10.4853 78.5859 11.3493 79.1406 12.48C79.6952 13.6107 79.9726 14.9547 79.9726 16.512C79.9726 16.6613 79.9619 16.8213 79.9406 16.992C79.9406 17.1413 79.9406 17.2373 79.9406 17.28H67.3646V15.104H77.9246L76.9006 16.576C76.9646 16.4693 77.0286 16.3093 77.0926 16.096C77.1566 15.8613 77.1886 15.6693 77.1886 15.52C77.1886 14.6453 77.0072 13.888 76.6446 13.248C76.3032 12.608 75.8232 12.1067 75.2046 11.744C74.5859 11.3813 73.8606 11.2 73.0286 11.2C72.0472 11.2 71.2046 11.4133 70.5006 11.84C69.8179 12.2453 69.2846 12.8427 68.9006 13.632C68.5379 14.4 68.3459 15.3493 68.3246 16.48C68.3246 17.632 68.5059 18.6133 68.8686 19.424C69.2312 20.2347 69.7646 20.8533 70.4686 21.28C71.1726 21.7067 72.0259 21.92 73.0286 21.92C74.0312 21.92 74.9166 21.7067 75.6846 21.28C76.4526 20.832 77.1032 20.16 77.6366 19.264L79.7166 20.576C78.9486 21.8133 77.9779 22.752 76.8046 23.392C75.6526 24.0107 74.2872 24.32 72.7086 24.32Z" fill="#6A3EA1"/>
</svg>
